<svg id="Layer_1" data-name="Layer 1" xmlns="http://www.w3.org/2000/svg" viewBox="0 0 20.55 23.66"><defs><style>.cls-1{fill:#3d94d1;}</style></defs><path class="cls-1" d="M69.77,61.92l16.8,9.68a.35.35,0,0,1,.18.31v3.48a.35.35,0,0,1-.18.31l-6.49,3.79a.36.36,0,0,1-.54-.31l0-3.4a.36.36,0,0,1,.53-.31l2.3,1.24a.36.36,0,0,0,.53-.31l0-2.48a.35.35,0,0,0-.18-.31L70.54,66.47a.35.35,0,0,0-.54.31v2.64a.35.35,0,0,0,.18.31l6.18,3.5a.35.35,0,0,1,.18.31l0,7.72a.35.35,0,0,1-.18.31l-6.57,3.91a.36.36,0,0,1-.36,0l-3-1.71a.35.35,0,0,1-.18-.31V75.73a.36.36,0,0,1,.54-.31l3,1.67a.35.35,0,0,1,.18.31l0,3.13a.37.37,0,0,0,.55.3l2.19-1.3a.33.33,0,0,0,.17-.31l0-3.64a.38.38,0,0,0-.19-.31l-6.21-3.5a.35.35,0,0,1-.18-.31V64.11a.34.34,0,0,1,.17-.3l3-1.89A.35.35,0,0,1,69.77,61.92Z" transform="translate(-66.2 -61.87)"/></svg>